# xmcd CD database file
#
# Track frame offsets:
#	150
#	25819
#	45265
#	59204
#	77418
#	96390
#	112742
#	128993
#	151262
#	167233
#
# Disc length: 2451 seconds
#
# Revision: 1
# Processed by: cddbd v1.5.2PL0 Copyright (c) Steve Scherf et al.
# Submitted via: CDex 1.51
#
DISCID=7709910a
DTITLE=Kim Lembo - Ready To Ride
DYEAR=1998
DGENRE=Blues
TTITLE0=Love To Ride
TTITLE1=Keep On Lovin' Me Baby
TTITLE2=Outside Love
TTITLE3=It's Love Baby - Four Full Seasons Of Love
TTITLE4=Sunday Morning
TTITLE5=Mean Old Daddy
TTITLE6=Stop
TTITLE7=Ain't No Love In The Heart Of The City
TTITLE8=Love Crazy
TTITLE9=Goin' To The Church
EXTD=YEAR: 1998
EXTT0=
EXTT1=
EXTT2=
EXTT3=
EXTT4=
EXTT5=
EXTT6=
EXTT7=
EXTT8=
EXTT9=
PLAYORDER=
